<svg width="1508" height="179" viewBox="0 0 1508 179" fill="none" xmlns="http://www.w3.org/2000/svg">
<g filter="url(#filter0_bi_96_85)">
<path d="M123.725 175H166.6L108.29 3.49999H58.31L0 175H42.875L51.45 148.05H115.15L123.725 175ZM63.21 111.3L83.3 48.335L103.39 111.3H63.21ZM334.103 86.065C343.413 77.98 349.048 66.71 349.048 52.5C349.048 22.855 324.793 3.49999 294.903 3.49999H227.773V175H299.803C330.428 175 355.173 155.155 355.173 124.775C355.173 107.38 346.843 94.15 334.103 86.065ZM294.903 40.25C303.968 40.25 309.848 46.62 309.848 55.44C309.848 64.26 303.723 70.63 294.903 70.63H266.973V40.25H294.903ZM299.803 138.25H266.973V105.42H299.803C309.603 105.42 315.973 112.28 315.973 121.835C315.973 131.39 309.603 138.25 299.803 138.25ZM503.058 178.43C552.303 178.43 592.238 139.72 592.238 89.25C592.238 38.78 552.303 0.0699887 503.058 0.0699887C453.813 0.0699887 413.878 38.78 413.878 89.25C413.878 139.72 453.813 178.43 503.058 178.43ZM503.058 140.21C475.128 140.21 453.078 119.875 453.078 89.25C453.078 58.625 475.128 38.29 503.058 38.29C530.988 38.29 553.038 58.625 553.038 89.25C553.038 119.875 530.988 140.21 503.058 140.21ZM724.588 178.43C762.318 178.43 790.738 156.38 790.738 119.63V3.49999H751.538V116.2C751.538 129.185 745.413 140.21 724.588 140.21C703.763 140.21 697.638 129.185 697.638 116.2V3.49999H658.438V119.63C658.438 156.38 686.858 178.43 724.588 178.43ZM980.708 3.49999H853.308V41.23H897.408V175H936.608V41.23H980.708V3.49999ZM1323.72 3.49999H1284.52L1237.97 79.695L1191.42 3.49999H1152.22V175H1191.42V75.285L1235.76 148.05H1240.17L1284.52 75.285V175H1323.72V3.49999ZM1438.94 137.27V106.89H1500.19V69.65H1438.94V41.23H1506.32V3.49999H1399.74V175H1507.54V137.27H1438.94Z" fill="white"/>
</g>
<defs>
<filter id="filter0_bi_96_85" x="-4" y="-3.92993" width="1515.54" height="186.36" filterUnits="userSpaceOnUse" color-interpolation-filters="sRGB">
<feFlood flood-opacity="0" result="BackgroundImageFix"/>
<feGaussianBlur in="BackgroundImageFix" stdDeviation="2"/>
<feComposite in2="SourceAlpha" operator="in" result="effect1_backgroundBlur_96_85"/>
<feBlend mode="normal" in="SourceGraphic" in2="effect1_backgroundBlur_96_85" result="shape"/>
<feColorMatrix in="SourceAlpha" type="matrix" values="0 0 0 0 0 0 0 0 0 0 0 0 0 0 0 0 0 0 127 0" result="hardAlpha"/>
<feOffset dx="11" dy="4"/>
<feGaussianBlur stdDeviation="2"/>
<feComposite in2="hardAlpha" operator="arithmetic" k2="-1" k3="1"/>
<feColorMatrix type="matrix" values="0 0 0 0 0 0 0 0 0 0 0 0 0 0 0 0 0 0 0.25 0"/>
<feBlend mode="normal" in2="shape" result="effect2_innerShadow_96_85"/>
</filter>
</defs>
</svg>
