<svg width="1491" height="140" viewBox="0 0 1491 140" fill="none" xmlns="http://www.w3.org/2000/svg">
<g filter="url(#filter0_bi_129_71)">
<path d="M70.254 139.674C94.702 139.674 116.094 127.641 127.554 108.732L101.196 93.452C95.466 103.766 83.815 109.878 70.254 109.878C46.57 109.878 31.29 94.025 31.29 70.15C31.29 46.275 46.57 30.422 70.254 30.422C83.815 30.422 95.275 36.534 101.196 46.848L127.554 31.568C115.903 12.659 94.511 0.625991 70.254 0.625991C29.953 0.625991 0.73 30.804 0.73 70.15C0.73 109.496 29.953 139.674 70.254 139.674ZM240.095 139.674C278.486 139.674 309.619 109.496 309.619 70.15C309.619 30.804 278.486 0.625991 240.095 0.625991C201.704 0.625991 170.571 30.804 170.571 70.15C170.571 109.496 201.704 139.674 240.095 139.674ZM240.095 109.878C218.321 109.878 201.131 94.025 201.131 70.15C201.131 46.275 218.321 30.422 240.095 30.422C261.869 30.422 279.059 46.275 279.059 70.15C279.059 94.025 261.869 109.878 240.095 109.878ZM437.605 3.29999V75.88L386.035 3.29999H363.115V137H393.675V64.42L445.245 137H468.165V3.29999H437.605ZM617.13 3.29999H517.81V32.714H552.19V137H582.75V32.714H617.13V3.29999ZM742.28 137H775.705L730.247 3.29999H691.283L645.825 137H679.25L685.935 115.99H735.595L742.28 137ZM695.103 87.34L710.765 38.253L726.427 87.34H695.103ZM882.34 139.674C906.788 139.674 928.18 127.641 939.64 108.732L913.282 93.452C907.552 103.766 895.901 109.878 882.34 109.878C858.656 109.878 843.376 94.025 843.376 70.15C843.376 46.275 858.656 30.422 882.34 30.422C895.901 30.422 907.361 36.534 913.282 46.848L939.64 31.568C927.989 12.659 906.597 0.625991 882.34 0.625991C842.039 0.625991 812.816 30.804 812.816 70.15C812.816 109.496 842.039 139.674 882.34 139.674ZM1080.02 3.29999H980.702V32.714H1015.08V137H1045.64V32.714H1080.02V3.29999ZM1347.43 3.29999H1316.87L1280.58 62.701L1244.29 3.29999H1213.73V137H1244.29V59.263L1278.86 115.99H1282.3L1316.87 59.263V137H1347.43V3.29999ZM1437.26 107.586V83.902H1485.01V54.87H1437.26V32.714H1489.78V3.29999H1406.7V137H1490.74V107.586H1437.26Z" fill="white"/>
</g>
<defs>
<filter id="filter0_bi_129_71" x="-3.27002" y="-3.37402" width="1498.01" height="147.048" filterUnits="userSpaceOnUse" color-interpolation-filters="sRGB">
<feFlood flood-opacity="0" result="BackgroundImageFix"/>
<feGaussianBlur in="BackgroundImageFix" stdDeviation="2"/>
<feComposite in2="SourceAlpha" operator="in" result="effect1_backgroundBlur_129_71"/>
<feBlend mode="normal" in="SourceGraphic" in2="effect1_backgroundBlur_129_71" result="shape"/>
<feColorMatrix in="SourceAlpha" type="matrix" values="0 0 0 0 0 0 0 0 0 0 0 0 0 0 0 0 0 0 127 0" result="hardAlpha"/>
<feOffset dx="11" dy="4"/>
<feGaussianBlur stdDeviation="2"/>
<feComposite in2="hardAlpha" operator="arithmetic" k2="-1" k3="1"/>
<feColorMatrix type="matrix" values="0 0 0 0 0 0 0 0 0 0 0 0 0 0 0 0 0 0 0.25 0"/>
<feBlend mode="normal" in2="shape" result="effect2_innerShadow_129_71"/>
</filter>
</defs>
</svg>
