<svg width="1490" height="179" viewBox="0 0 1490 179" fill="none" xmlns="http://www.w3.org/2000/svg">
<g filter="url(#filter0_bi_116_20)">
<path d="M65.625 3.49999H0.700001V175H39.9V121.1H65.625C99.435 121.1 125.65 94.885 125.65 62.3C125.65 29.715 99.435 3.49999 65.625 3.49999ZM65.625 84.35H39.9V40.25H65.625C77.63 40.25 86.45 49.805 86.45 62.3C86.45 74.795 77.63 84.35 65.625 84.35ZM281.922 175H324.062L287.557 112.035C306.422 102.48 319.162 83.37 319.162 62.3C319.162 29.715 292.947 3.49999 260.362 3.49999H191.762V175H230.962V118.65H249.582L281.922 175ZM230.962 40.25H260.362C271.142 40.25 279.962 49.805 279.962 62.3C279.962 74.795 271.142 84.35 260.362 84.35H230.962V40.25ZM468.482 178.43C517.727 178.43 557.662 139.72 557.662 89.25C557.662 38.78 517.727 0.0699887 468.482 0.0699887C419.237 0.0699887 379.302 38.78 379.302 89.25C379.302 139.72 419.237 178.43 468.482 178.43ZM468.482 140.21C440.552 140.21 418.502 119.875 418.502 89.25C418.502 58.625 440.552 38.29 468.482 38.29C496.412 38.29 518.462 58.625 518.462 89.25C518.462 119.875 496.412 140.21 468.482 140.21ZM659.771 178.43C695.051 178.43 721.511 157.605 721.511 119.875V3.49999H682.311V119.875C682.311 130.41 677.166 140.21 660.016 140.21C646.786 140.21 641.151 135.065 635.761 125.51L601.706 145.11C612.976 166.915 632.576 178.43 659.771 178.43ZM835.49 137.27V106.89H896.74V69.65H835.49V41.23H902.865V3.49999H796.29V175H904.09V137.27H835.49ZM1053.39 178.43C1084.75 178.43 1112.19 162.995 1126.89 138.74L1093.08 119.14C1085.73 132.37 1070.79 140.21 1053.39 140.21C1023.01 140.21 1003.41 119.875 1003.41 89.25C1003.41 58.625 1023.01 38.29 1053.39 38.29C1070.79 38.29 1085.49 46.13 1093.08 59.36L1126.89 39.76C1111.95 15.505 1084.51 0.0699887 1053.39 0.0699887C1001.7 0.0699887 964.21 38.78 964.21 89.25C964.21 139.72 1001.7 178.43 1053.39 178.43ZM1306.96 3.49999H1179.56V41.23H1223.66V175H1262.86V41.23H1306.96V3.49999ZM1425.91 178.43C1463.15 178.43 1489.61 158.83 1489.61 125.755C1489.61 89.495 1460.46 80.43 1434.49 72.59C1407.78 64.505 1403.62 59.115 1403.62 51.275C1403.62 44.415 1409.74 38.29 1421.99 38.29C1437.67 38.29 1445.76 45.885 1451.64 58.135L1484.71 38.78C1472.22 13.545 1450.17 0.0699887 1421.99 0.0699887C1392.35 0.0699887 1364.42 19.18 1364.42 52.255C1364.42 85.085 1389.41 97.335 1414.89 104.44C1440.61 111.545 1450.41 115.71 1450.41 126.245C1450.41 132.86 1445.76 140.21 1427.14 140.21C1407.78 140.21 1397.25 130.655 1391.12 116.445L1357.31 136.045C1366.87 161.28 1389.9 178.43 1425.91 178.43Z" fill="#3A3A3A"/>
</g>
<defs>
<filter id="filter0_bi_116_20" x="-3.30005" y="-3.93018" width="1496.91" height="186.36" filterUnits="userSpaceOnUse" color-interpolation-filters="sRGB">
<feFlood flood-opacity="0" result="BackgroundImageFix"/>
<feGaussianBlur in="BackgroundImageFix" stdDeviation="2"/>
<feComposite in2="SourceAlpha" operator="in" result="effect1_backgroundBlur_116_20"/>
<feBlend mode="normal" in="SourceGraphic" in2="effect1_backgroundBlur_116_20" result="shape"/>
<feColorMatrix in="SourceAlpha" type="matrix" values="0 0 0 0 0 0 0 0 0 0 0 0 0 0 0 0 0 0 127 0" result="hardAlpha"/>
<feOffset dx="11" dy="4"/>
<feGaussianBlur stdDeviation="2"/>
<feComposite in2="hardAlpha" operator="arithmetic" k2="-1" k3="1"/>
<feColorMatrix type="matrix" values="0 0 0 0 0 0 0 0 0 0 0 0 0 0 0 0 0 0 0.8 0"/>
<feBlend mode="normal" in2="shape" result="effect2_innerShadow_116_20"/>
</filter>
</defs>
</svg>
